<svg version="1.1" id="Layer_1" xmlns="http://www.w3.org/2000/svg" xmlns:xlink="http://www.w3.org/1999/xlink" x="0px" y="0px"
	 width="100%" viewBox="0 0 1435 212" enable-background="new 0 0 1435 212" xml:space="preserve">
<path fill="#FFFFFF" opacity="1.000000" stroke="none" 
	d="
M527.000000,213.000000 
	C379.979095,213.000000 232.958206,213.000000 85.623810,212.628387 
	C88.554146,211.329971 92.109734,210.963867 94.981201,209.367340 
	C102.476570,205.199936 109.755875,200.623383 116.970840,195.976318 
	C133.195999,185.525909 148.269684,173.758636 159.879745,158.044998 
	C166.549255,149.018143 170.746552,139.341187 170.082886,127.778671 
	C169.645004,120.149956 170.010086,112.475700 169.998245,104.821861 
	C169.946777,71.548096 169.888901,38.274338 169.905045,4.564590 
	C168.877548,3.419159 167.804047,2.148940 166.674713,2.097207 
	C161.749588,1.871593 156.804794,2.110200 151.874176,1.955511 
	C149.242050,1.872932 146.624268,1.333334 144.000000,1.000000 
	C230.020889,1.000000 316.041779,1.000000 402.357361,1.385026 
	C400.876465,1.918903 399.100891,2.067752 397.241333,2.223644 
	C397.241333,35.812252 397.241333,69.207817 397.241333,102.743790 
	C419.200043,102.743790 440.916687,102.743790 462.715790,102.743790 
	C462.715790,96.092316 462.715790,89.699959 462.715790,82.850739 
	C447.710938,82.850739 432.984558,82.850739 418.332764,82.850739 
	C418.332764,75.657745 418.332764,68.930450 418.332764,61.751961 
	C431.389618,61.751961 444.118347,61.751961 456.616669,61.751961 
	C456.616669,54.886871 456.616669,48.489819 456.616669,41.827492 
	C443.628265,41.827492 431.022064,41.827492 418.257202,41.827492 
	C418.257202,35.147781 418.257202,28.755816 418.257202,21.904434 
	C432.900665,21.904434 447.294037,21.904434 461.693665,21.904434 
	C461.693665,15.046121 461.693665,8.652317 461.693665,1.999993 
	C453.085663,1.999993 444.781525,2.048902 436.479004,1.954957 
	C434.982574,1.938025 433.492828,1.333333 432.000000,1.000001 
	C453.687561,1.000000 475.375122,1.000000 497.409821,1.346393 
	C496.180298,2.184077 494.603668,2.675366 492.678101,3.183884 
	C490.373810,4.221943 488.418488,5.242774 486.194458,6.451643 
	C483.578827,9.412488 481.231842,12.185296 478.561401,15.127323 
	C477.158600,20.327818 475.605011,25.311398 475.093292,30.399754 
	C473.810028,43.160152 480.429932,51.430805 491.369934,56.712925 
	C499.507324,60.641865 507.955872,63.948940 515.968933,68.105423 
	C521.984619,71.225876 522.272278,76.824158 518.057007,80.907532 
	C515.318237,83.560562 510.002533,85.066002 506.080536,84.676682 
	C497.357788,83.810837 489.787079,79.516205 483.253815,72.805344 
	C478.760376,78.402863 474.339478,83.909981 469.855072,89.496239 
	C483.640839,101.265106 498.797760,106.556526 516.289612,103.946533 
	C523.703918,102.840240 530.707581,99.988182 535.309937,93.998245 
	C546.865173,78.959114 545.100403,56.411720 524.592957,47.222813 
	C517.653931,44.113594 510.562927,41.310844 503.781097,37.892399 
	C496.311584,34.127335 491.719482,27.967667 502.411926,20.905666 
	C505.478607,20.905455 508.133636,20.832911 511.050781,20.852383 
	C511.494263,20.907120 511.675659,20.869841 512.120422,20.905821 
	C512.923950,21.042051 513.464111,21.105021 514.200073,21.484751 
	C516.692688,22.703444 518.989563,23.605377 521.556824,24.724943 
	C523.776917,26.343958 525.659668,27.861269 527.728882,29.055441 
	C528.178284,29.314754 529.296265,28.415417 530.416443,27.899090 
	C534.131836,22.970371 537.537109,18.192316 541.431885,12.727434 
	C537.270203,10.177556 533.583313,7.918621 529.617554,5.371244 
	C525.559082,3.721867 521.779541,2.360930 518.000000,0.999997 
	C538.020874,1.000000 558.041809,1.000000 578.342163,1.394815 
	C568.523743,1.789630 558.425903,1.789630 548.303101,1.789630 
	C548.303101,8.942541 548.303101,15.338419 548.303101,22.197229 
	C556.668457,22.197229 564.739685,22.197229 573.253052,22.197229 
	C573.253052,49.392567 573.253052,76.119362 573.253052,102.786499 
	C580.664001,102.786499 587.608154,102.786499 595.011963,102.786499 
	C595.011963,75.851364 595.011963,49.124512 595.011963,21.932251 
	C603.534912,21.932251 611.604553,21.932251 619.699219,21.932251 
	C619.699219,15.062348 619.699219,8.666609 619.699219,2.000000 
	C612.261047,2.000000 605.119629,2.071304 597.981262,1.954155 
	C595.982849,1.921359 593.993530,1.333333 592.000000,1.000000 
	C608.687561,1.000000 625.375122,1.000000 642.344360,1.393295 
	C638.527832,1.786589 634.429565,1.786589 630.265137,1.786589 
	C630.265137,35.906601 630.265137,69.278908 630.265137,102.724831 
	C652.244934,102.724831 673.958557,102.724831 695.698242,102.724831 
	C695.698242,96.053360 695.698242,89.662102 695.698242,82.818916 
	C680.677429,82.818916 665.953247,82.818916 651.345520,82.818916 
	C651.345520,75.629593 651.345520,68.902824 651.345520,61.729233 
	C664.413757,61.729233 677.140625,61.729233 689.784790,61.729233 
	C689.784790,54.992748 689.784790,48.717987 689.784790,41.989792 
	C676.852844,41.989792 664.126343,41.989792 651.261475,41.989792 
	C651.261475,35.136932 651.261475,28.745935 651.261475,21.899017 
	C665.907410,21.899017 680.298706,21.899017 694.693970,21.899017 
	C694.693970,15.044842 694.693970,8.651967 694.693970,2.000000 
	C690.250916,2.000000 686.106201,2.127440 681.973511,1.959849 
	C678.641479,1.824731 675.323975,1.333332 672.000000,1.000000 
	C763.020874,1.000000 854.041809,1.000000 945.410645,1.347538 
	C944.542664,2.138967 943.332275,2.598611 942.110046,3.024344 
	C922.156494,9.974500 919.379456,35.987953 929.163818,47.777447 
	C934.131042,53.762676 940.683472,56.975754 947.494751,60.008434 
	C953.535278,62.697926 959.848450,64.954330 965.479492,68.337074 
	C971.868958,72.175468 971.263489,78.537399 966.144226,81.969170 
	C963.052673,84.041664 958.327271,85.168381 954.665955,84.598846 
	C946.211609,83.283684 938.783142,79.112091 932.204956,72.819244 
	C927.833618,78.506035 923.534180,84.099236 919.351624,89.540421 
	C922.080261,91.833649 923.802063,93.627937 925.837341,94.933388 
	C936.919067,102.041374 948.800049,105.539177 962.218628,104.158760 
	C970.197937,103.337898 977.048340,100.858444 982.930298,95.558365 
	C991.002258,88.285027 991.963623,78.654915 990.801819,68.840569 
	C990.297546,64.581253 988.329407,60.072460 985.794739,56.567486 
	C981.054138,50.012081 973.558350,47.080208 966.326416,43.935516 
	C960.549866,41.423683 954.709106,38.883991 949.370422,35.589363 
	C943.856506,32.186619 943.901917,25.912546 948.966431,22.861818 
	C951.827515,21.138367 956.234619,20.126774 959.315979,21.004366 
	C966.014832,22.912216 972.310059,26.237051 978.822754,29.004961 
	C981.744873,25.104063 985.204468,20.386436 988.783325,15.761084 
	C990.058594,14.112810 991.059265,13.014128 988.322327,11.653467 
	C981.475098,8.249358 974.765076,4.569335 968.000000,1.000010 
	C1008.687561,1.000000 1049.375122,1.000000 1090.387207,1.400304 
	C1090.474365,3.055201 1090.031616,4.309546 1090.030029,5.564433 
	C1089.992188,37.050194 1089.997559,68.536018 1090.015869,100.021828 
	C1090.016479,100.956039 1090.239380,101.890129 1090.381104,103.000000 
	C1096.311523,103.000000 1101.962646,103.117859 1107.607056,102.973297 
	C1116.854614,102.736481 1126.292114,103.396545 1135.299316,101.755852 
	C1150.728760,98.945358 1161.233521,89.541969 1167.192871,74.686882 
	C1171.921143,62.901012 1171.867798,50.997093 1169.922607,38.947052 
	C1167.307373,22.745764 1154.845703,7.065531 1137.946167,4.129523 
	C1128.453979,2.480420 1118.643555,2.681132 1108.982300,1.970233 
	C1107.306763,1.846948 1105.660034,1.333321 1104.000000,0.999994 
	C1163.354248,1.000000 1222.708496,1.000000 1282.355835,1.385748 
	C1280.544800,1.916982 1278.440674,2.062467 1276.248535,2.214037 
	C1276.248535,35.843792 1276.248535,69.230705 1276.248535,102.738144 
	C1298.213501,102.738144 1319.929077,102.738144 1341.710571,102.738144 
	C1341.710571,96.080315 1341.710571,89.688904 1341.710571,82.841080 
	C1327.034180,82.841080 1312.641724,82.841080 1298.336792,82.841080 
	C1298.336792,75.648880 1298.336792,68.921822 1298.336792,61.744549 
	C1311.064209,61.744549 1323.459351,61.744549 1335.613525,61.744549 
	C1335.613525,54.880825 1335.613525,48.483944 1335.613525,41.822002 
	C1322.955688,41.822002 1310.683228,41.822002 1298.259277,41.822002 
	C1298.259277,35.142906 1298.259277,28.751263 1298.259277,21.901268 
	C1312.904175,21.901268 1327.296753,21.901268 1341.692993,21.901268 
	C1341.692993,15.044145 1341.692993,8.650606 1341.692993,1.999993 
	C1333.084595,1.999993 1324.780762,2.048900 1316.478638,1.954936 
	C1314.982422,1.938002 1313.492676,1.333311 1312.000000,0.999990 
	C1350.020874,1.000000 1388.041870,1.000000 1426.343750,1.393734 
	C1423.632446,1.858312 1420.600098,2.267642 1417.657227,1.919418 
	C1413.412109,1.417078 1411.217163,3.017031 1409.442749,6.902421 
	C1405.391846,15.772623 1400.872681,24.434061 1396.356567,33.082596 
	C1395.395020,34.924084 1393.636475,36.349464 1392.244995,37.966488 
	C1391.181885,36.429939 1389.918701,34.993816 1389.088257,33.340450 
	C1383.850708,22.913368 1378.709106,12.438082 1373.741211,2.394058 
	C1365.201660,2.394058 1357.177002,2.394058 1348.547241,2.394058 
	C1355.607300,15.512865 1362.281128,28.113295 1369.143921,40.609871 
	C1375.902832,52.917290 1383.474976,64.730881 1381.191650,80.027054 
	C1380.082520,87.456207 1381.000000,95.187866 1381.000000,102.645432 
	C1388.714722,102.645432 1395.779297,102.645432 1403.000000,102.645432 
	C1403.000000,90.804237 1402.908936,79.315697 1403.075317,67.830887 
	C1403.109253,65.482613 1403.647705,62.905190 1404.734863,60.845818 
	C1414.049683,43.201057 1423.523438,25.639959 1433.030518,8.097683 
	C1433.687866,6.884897 1434.994995,6.024356 1436.000000,5.000000 
	C1436.000000,74.279434 1436.000000,143.558868 1436.000000,213.000000 
	C1317.979126,213.000000 1199.958252,213.000000 1081.644653,212.596588 
	C1087.810425,212.193192 1094.268799,212.193192 1100.783936,212.193192 
	C1100.783936,210.501068 1100.783936,209.412766 1100.783936,207.976929 
	C1099.448242,207.976929 1098.238403,208.246078 1097.202759,207.935028 
	C1087.573242,205.042740 1089.012207,206.587112 1089.004517,197.748169 
	C1088.989136,179.929337 1088.994385,162.110474 1089.010742,144.291641 
	C1089.011963,142.879578 1089.163452,141.467651 1089.264038,139.728821 
	C1091.861816,140.042511 1093.994385,140.152878 1096.063232,140.575378 
	C1104.929932,142.386154 1108.105835,149.442413 1111.108765,156.789062 
	C1111.724121,158.294373 1113.506470,159.322678 1114.750854,160.570847 
	C1115.239990,160.202011 1115.729126,159.833176 1116.218384,159.464325 
	C1115.728271,151.784637 1115.238281,144.104950 1114.744141,136.360016 
	C1093.431030,136.360016 1072.257324,136.360016 1050.543457,136.360016 
	C1050.543457,144.432556 1050.543457,152.139297 1050.543457,161.466675 
	C1052.248535,159.650940 1053.423950,158.773712 1054.095947,157.606674 
	C1055.540771,155.097458 1056.642700,152.393219 1058.033936,149.850250 
	C1062.143555,142.338226 1069.369873,138.535233 1077.000000,140.704498 
	C1077.000000,159.449539 1076.890625,178.252823 1077.045410,197.053925 
	C1077.124512,206.668365 1076.658447,206.323257 1066.357300,207.993301 
	C1065.720581,208.096527 1065.065186,208.084091 1062.648682,208.238693 
	C1064.656372,210.435593 1065.828125,211.717804 1067.000000,213.000000 
	C1037.979126,213.000000 1008.958191,213.000000 979.588867,212.638489 
	C981.811279,211.369476 984.735718,210.969116 986.891052,209.465881 
	C995.825012,203.235229 998.404175,194.020325 996.850952,183.875717 
	C995.518616,175.173203 988.553528,171.544678 980.876526,168.889664 
	C975.279358,166.953888 969.779541,164.620392 964.475342,161.983322 
	C958.072937,158.800262 956.637756,152.779160 958.774963,146.257782 
	C961.466614,138.044571 974.996094,136.402878 980.667969,142.352158 
	C983.969421,145.815186 986.190857,150.289459 989.083008,154.171066 
	C990.077393,155.505692 991.631714,156.423111 993.837524,158.305405 
	C993.837524,149.170944 993.837524,141.716431 993.837524,133.301285 
	C991.839355,134.235138 990.362915,134.980331 988.840698,135.615768 
	C987.932434,135.994934 986.931213,136.501678 986.007690,136.437164 
	C980.312622,136.039398 974.614197,135.615616 968.942993,134.970642 
	C961.254333,134.096237 950.671814,141.925415 948.345825,150.099243 
	C944.750305,162.734375 949.316284,171.222763 960.698975,175.870255 
	C966.190613,178.112473 971.966187,179.686295 977.369873,182.106064 
	C980.497986,183.506851 983.811035,185.468857 985.853027,188.100098 
	C989.199463,192.412094 988.726440,199.102478 985.855103,202.649521 
	C981.372986,208.186478 974.305481,210.544266 967.901123,208.377045 
	C958.623962,205.237625 954.398193,197.290405 950.086487,189.408340 
	C949.443359,188.232788 948.007080,187.491165 946.000000,185.722321 
	C946.000000,196.046570 946.000000,204.523285 946.000000,213.000000 
	C905.979126,213.000000 865.958191,213.000000 825.644653,212.596542 
	C835.122070,212.193085 844.892151,212.193085 854.725586,212.193085 
	C855.257385,203.508194 855.748352,195.490219 856.239319,187.472244 
	C855.724243,187.116425 855.209229,186.760620 854.694153,186.404800 
	C853.466980,187.685532 851.666260,188.756561 851.108398,190.282043 
	C848.132568,198.419968 843.792786,205.502502 834.600647,206.802139 
	C827.960449,207.740967 821.080627,206.985214 814.261719,206.985214 
	C814.261719,196.090256 814.261719,185.690872 814.261719,175.000183 
	C815.490723,175.000183 816.459717,175.007339 817.428589,174.999130 
	C829.233093,174.899109 829.184326,174.920029 834.132385,186.136261 
	C834.575378,187.140427 836.192505,187.626556 837.675659,188.632065 
	C837.675659,177.551544 837.675659,167.344666 837.675659,157.137787 
	C837.170410,156.917633 836.665161,156.697479 836.159912,156.477325 
	C835.107849,158.443344 833.696655,160.303070 833.076843,162.397034 
	C831.703125,167.037659 828.644043,169.503845 824.042847,169.938431 
	C820.800720,170.244659 817.506409,169.997635 814.000000,169.997635 
	C814.000000,164.632141 814.000000,159.826675 814.000000,155.021194 
	C814.000000,150.089691 814.000000,145.158188 814.000000,140.000000 
	C817.891296,140.000000 821.200134,140.000992 824.508972,139.999832 
	C840.823730,139.994110 842.552307,144.553650 847.962341,156.028015 
	C848.094177,156.307587 847.884033,156.860336 848.056335,156.990494 
	C849.109314,157.785675 850.226746,158.495483 851.698608,159.486938 
	C851.698608,151.042526 851.698608,143.628433 851.698608,136.000381 
	C832.263245,136.000381 813.128052,136.053848 793.993713,135.950256 
	C790.617310,135.931961 790.557129,137.370575 791.388306,139.792099 
	C802.053894,140.154388 802.208435,142.152298 802.072021,150.810852 
	C801.820129,166.797607 801.917603,182.791748 802.033264,198.781631 
	C802.095032,207.327621 801.573425,205.797592 794.372559,207.964752 
	C793.327454,208.279282 792.166809,208.210037 791.059631,208.318359 
	C790.830078,208.807556 790.600525,209.296753 790.370972,209.785950 
	C791.914001,210.857300 793.456970,211.928650 795.000000,213.000000 
	C780.312439,213.000000 765.624878,213.000000 750.471924,212.617279 
	C752.668884,205.694061 755.334229,199.154785 757.992981,192.612808 
	C763.981628,177.877060 769.988586,163.148697 775.940002,148.397919 
	C777.618469,144.237885 780.249695,141.276321 784.691956,139.886093 
	C785.803162,139.538330 786.514221,137.912094 787.873840,136.334167 
	C777.870789,136.334167 768.998596,136.334167 760.126343,136.334167 
	C759.934937,136.786575 759.743591,137.238983 759.552246,137.691406 
	C760.974121,138.467133 762.327759,139.425507 763.829834,139.986404 
	C769.748230,142.196472 770.899475,143.514450 768.898926,149.547104 
	C765.261963,160.514587 761.016357,171.281281 756.974060,182.112808 
	C755.215454,186.824875 753.331360,191.490082 751.223267,196.897385 
	C750.223328,195.235535 749.601562,194.499680 749.295898,193.650070 
	C743.856018,178.527924 738.413208,163.406525 733.064514,148.251938 
	C730.872559,142.041367 731.981689,140.526230 738.712036,140.010300 
	C739.666687,139.937119 740.631775,140.000183 741.987854,140.000183 
	C741.859436,138.442047 741.763123,137.272751 741.686157,136.338776 
	C730.210327,136.338776 719.165466,136.338776 708.120605,136.338776 
	C707.911255,136.781982 707.701843,137.225174 707.492493,137.668381 
	C708.729675,138.445953 709.882935,139.667984 711.219360,139.920349 
	C715.814941,140.788193 718.663635,143.307327 720.271301,147.682770 
	C724.092834,158.083862 728.087097,168.421539 732.016113,178.783096 
	C736.341431,190.189743 740.671814,201.594452 745.000000,213.000000 
	C730.645752,213.000000 716.291565,213.000000 701.604675,212.623840 
	C701.972961,211.034836 702.673828,209.822021 703.727417,207.998978 
	C701.350098,207.998978 700.351501,208.077301 699.368591,207.986374 
	C692.491211,207.350067 691.000183,205.723694 691.000122,198.939270 
	C690.999939,181.773224 690.994812,164.607193 691.003052,147.441147 
	C691.005554,142.140839 692.988708,140.143967 698.360229,140.005692 
	C699.809509,139.968384 701.260559,140.000061 702.764587,140.000061 
	C702.764587,138.454422 702.764587,137.385376 702.764587,136.232483 
	C690.770325,136.232483 679.004211,136.232483 667.329346,136.232483 
	C666.228760,139.494507 667.623901,140.171463 670.408203,140.037170 
	C677.325073,139.703568 680.192749,142.581985 680.073364,149.984070 
	C679.828857,165.146240 679.848022,180.317215 680.058411,195.480423 
	C680.179565,204.208923 680.171875,207.547607 667.994446,208.066803 
	C667.711060,208.078873 667.439697,208.373749 667.000000,208.632492 
	C667.000000,210.027283 667.000000,211.513641 667.000000,213.000000 
	C661.311951,213.000000 655.623962,213.000000 649.467957,212.531342 
	C649.000000,193.411011 648.688660,174.751389 649.163818,156.111832 
	C649.337280,149.309219 648.852234,141.022995 659.174255,139.822250 
	C660.006958,139.725388 660.627075,137.801056 661.612976,136.326569 
	C650.873657,136.326569 641.000061,136.326569 631.126465,136.326569 
	C630.934814,136.783478 630.743103,137.240372 630.551453,137.697281 
	C631.972107,138.464081 633.309937,139.556473 634.827454,139.942123 
	C641.947449,141.751587 644.901489,145.320953 644.992981,152.688950 
	C645.034363,156.019104 645.000000,159.350220 645.000000,162.680893 
	C645.000000,172.062363 645.000000,181.443848 645.000000,191.595963 
	C643.670715,190.748322 643.015137,190.540054 642.689026,190.092010 
	C631.350586,174.513809 619.927185,158.995132 608.796814,143.269119 
	C605.102844,138.049911 601.092712,134.783890 594.221558,135.893066 
	C590.488159,136.495728 586.578308,135.996185 582.748230,136.021851 
	C582.272888,136.025040 581.798706,136.201080 581.034485,136.355530 
	C581.144714,137.590424 581.250244,138.772644 581.352600,139.918823 
	C591.880920,139.892441 593.710815,144.788544 593.883728,151.056213 
	C594.260132,164.701599 594.301636,178.373856 593.880310,192.016602 
	C593.648804,199.513443 592.572144,207.184509 582.428040,208.155914 
	C581.776428,208.218307 581.324097,210.362595 580.887939,211.303406 
	C583.439453,212.011673 585.219727,212.505844 587.000000,213.000000 
	C573.312439,213.000000 559.624878,213.000000 545.593018,212.635239 
	C549.116882,210.397522 553.311584,208.989929 556.783813,206.552826 
	C563.593201,201.773346 564.783997,194.191284 564.935120,186.600784 
	C565.177185,174.449768 564.988159,162.290405 565.005310,150.134583 
	C565.013184,144.559082 567.563477,141.490097 572.901855,139.918076 
	C574.226379,139.528030 575.252686,138.124985 576.416138,137.187576 
	C566.388489,136.002060 557.242798,135.996964 548.097168,136.013016 
	C547.454102,136.014145 546.811279,136.171509 546.168274,136.256241 
	C545.957397,136.710587 545.746521,137.164948 545.535645,137.619293 
	C547.038269,138.412766 548.457153,139.536133 550.058044,139.942261 
	C556.770935,141.645264 559.987976,145.527100 559.996155,152.401352 
	C560.010132,164.224136 559.637207,176.061661 560.115906,187.865051 
	C560.492432,197.146988 551.465942,208.280029 541.730896,208.137375 
	C525.354675,207.897446 519.459106,200.303055 519.095642,188.178040 
	C518.681824,174.369431 519.129089,160.536972 518.926880,146.718918 
	C518.860168,142.161713 521.364014,140.651321 525.080566,140.040482 
	C526.515198,139.804703 528.020935,140.002014 529.681274,140.002014 
	C529.681274,138.556595 529.681274,137.381226 529.681274,136.000397 
	C519.229736,136.000397 509.085754,136.085464 498.944580,135.953094 
	C495.511597,135.908295 495.576324,137.444260 496.407684,139.814331 
	C507.593689,140.390030 508.000000,140.824097 508.000000,151.993820 
	C508.000000,165.315277 507.950165,178.637009 508.018738,191.958115 
	C508.059784,199.936020 511.352478,206.007492 518.859924,209.392807 
	C521.565369,210.612747 524.286194,211.798584 527.000000,213.000000 
M353.064209,45.730873 
	C351.671295,51.547050 350.278412,57.363228 348.885529,63.179405 
	C348.391510,63.112816 347.897491,63.046227 347.403473,62.979641 
	C341.736115,42.694923 336.068787,22.410206 330.366455,2.000307 
	C324.931519,2.000307 319.595306,1.791670 314.294952,2.135526 
	C312.826172,2.230813 310.549347,3.711030 310.191345,4.989392 
	C305.612213,21.339855 301.358093,37.780964 296.907379,54.168083 
	C296.069092,57.254692 294.732391,60.205929 293.625671,63.219631 
	C287.679291,44.020802 282.884216,25.103544 277.923676,6.229789 
	C277.513794,4.670325 276.043396,2.249990 274.960999,2.192240 
	C268.046600,1.823326 261.102875,2.004259 253.882996,2.004259 
	C254.141800,3.375779 254.231064,4.179102 254.447510,4.946558 
	C257.956879,17.389965 261.445374,29.839437 265.012726,42.266270 
	C270.632935,61.844273 276.263184,81.419861 282.066986,100.943619 
	C282.438629,102.193779 284.290619,103.791817 285.530090,103.860863 
	C291.162964,104.174629 296.823181,103.998329 302.550293,103.998329 
	C308.332245,83.840813 314.051788,63.900860 319.771332,43.960907 
	C320.217407,43.983082 320.663452,44.005260 321.109528,44.027439 
	C326.837555,63.978416 332.565582,83.929398 338.327942,103.999985 
	C343.605133,103.999985 348.616852,103.699730 353.572357,104.098328 
	C357.301056,104.398254 358.865051,102.870094 359.785553,99.579788 
	C366.014435,77.315842 372.331757,55.076649 378.602020,32.824242 
	C381.445984,22.731136 384.247711,12.626130 387.152405,2.226605 
	C379.363373,2.226605 371.926849,2.226605 364.546326,2.226605 
	C360.848419,16.543274 357.172943,30.772943 353.064209,45.730873 
M1182.000000,37.500000 
	C1182.000000,59.248829 1182.000000,80.997658 1182.000000,102.660995 
	C1189.686768,102.660995 1196.748291,102.660995 1204.312988,102.660995 
	C1204.312988,83.702347 1204.312988,65.079185 1204.312988,45.509144 
	C1216.848877,64.377144 1228.761230,82.355583 1240.770264,100.269279 
	C1241.550781,101.433563 1243.036743,102.812057 1244.257690,102.875542 
	C1249.692627,103.158112 1255.150391,102.998161 1260.755615,102.998161 
	C1260.755615,69.152222 1260.755615,35.771610 1260.755615,2.273216 
	C1253.782349,2.273216 1247.056641,2.273216 1239.412964,2.273216 
	C1239.412964,20.538424 1239.412964,38.541630 1239.412964,56.544834 
	C1237.553711,55.213978 1236.734863,53.845512 1235.858887,52.514828 
	C1225.512573,36.799469 1215.183838,21.072437 1204.759155,5.409127 
	C1203.857666,4.054448 1202.358154,2.230654 1201.052612,2.159358 
	C1194.807007,1.818283 1188.532715,2.006372 1182.000000,2.006372 
	C1182.000000,13.897646 1182.000000,25.198824 1182.000000,37.500000 
M854.000000,23.500126 
	C854.000000,34.312557 854.000000,45.124992 854.000000,55.937424 
	C852.187805,55.386898 851.515320,54.730045 851.011719,53.962437 
	C840.334534,37.687447 829.707886,21.379042 818.955872,5.153742 
	C818.074158,3.823254 816.410156,2.224363 815.031067,2.146761 
	C809.122375,1.814252 803.184204,2.005005 797.305786,2.005005 
	C797.305786,35.985668 797.305786,69.359657 797.305786,102.667450 
	C804.343018,102.667450 811.069702,102.667450 818.289124,102.667450 
	C818.289124,83.381180 818.289124,64.423698 818.289124,44.590542 
	C819.234436,45.730442 819.589966,46.081104 819.855225,46.490242 
	C831.403503,64.301849 842.915833,82.136932 854.542358,99.897255 
	C855.398254,101.204659 857.025452,102.781700 858.372437,102.858521 
	C864.124878,103.186592 869.906738,102.998177 875.728149,102.998177 
	C875.728149,69.082664 875.728149,35.708916 875.728149,2.298281 
	C868.394409,2.298281 861.335388,2.298281 854.000000,2.298281 
	C854.000000,9.228917 854.000000,15.864556 854.000000,23.500126 
M772.502075,103.000000 
	C776.795593,103.000000 781.089050,103.000000 785.952576,103.000000 
	C778.731934,90.305901 771.741211,78.015862 764.638794,65.529526 
	C776.047668,60.807606 781.576904,51.964790 782.780884,40.889175 
	C783.970154,29.948187 782.272095,19.454195 773.681458,11.019687 
	C768.238281,5.675402 761.520264,2.683818 754.604614,2.294834 
	C739.229492,1.430025 723.772217,2.025102 708.253906,2.025102 
	C708.253906,35.893822 708.253906,69.261192 708.253906,102.721710 
	C715.567322,102.721710 722.623413,102.721710 730.132812,102.721710 
	C730.132812,91.720879 730.132812,80.990005 730.132812,70.000000 
	C732.556946,70.000000 734.568359,70.240234 736.500000,69.949722 
	C740.455139,69.354889 742.959656,70.923012 744.792480,74.361671 
	C748.070190,80.511513 752.011414,86.348854 754.826721,92.693352 
	C758.168762,100.224754 762.388123,105.316864 772.502075,103.000000 
M1065.939697,29.398863 
	C1070.732300,20.465487 1075.524902,11.532110 1080.638794,2.000071 
	C1072.996094,2.000071 1066.335327,2.223418 1059.700928,1.901356 
	C1056.605103,1.751070 1055.236694,3.138651 1054.065674,5.521578 
	C1049.406250,15.003584 1044.707275,24.466187 1040.005005,33.927078 
	C1039.119019,35.709656 1038.151489,37.451717 1036.814087,39.984241 
	C1030.581665,27.796392 1024.840210,16.521338 1019.032227,5.280687 
	C1018.417542,4.091140 1017.439819,2.191483 1016.582703,2.164960 
	C1008.754944,1.922730 1000.916565,2.022621 992.641113,2.022621 
	C996.750061,9.611251 1000.371094,16.307783 1004.000610,22.999725 
	C1010.653870,35.266834 1017.402588,47.483814 1023.888916,59.838566 
	C1025.120972,62.185459 1025.858521,65.063339 1025.907471,67.713181 
	C1026.122314,79.323364 1026.000000,90.939781 1026.000000,102.756805 
	C1033.489136,102.756805 1040.548096,102.756805 1048.000000,102.756805 
	C1048.000000,90.565536 1047.906982,78.612068 1048.080078,66.662453 
	C1048.113892,64.328209 1048.776489,61.802570 1049.840088,59.717766 
	C1054.926025,49.748409 1060.249878,39.900494 1065.939697,29.398863 
M914.541199,138.935959 
	C912.732361,138.291428 910.929199,137.106842 909.113770,137.087784 
	C894.562988,136.934982 880.009827,137.002365 865.122070,137.002365 
	C865.155701,137.531693 865.230652,138.712753 865.303284,139.855942 
	C876.439087,140.286819 877.000000,140.866821 877.000000,151.579193 
	C877.000000,167.411499 877.002502,183.243820 876.998657,199.076126 
	C876.997192,205.275452 875.437927,207.121445 869.344604,207.966324 
	C868.068909,208.143204 866.747803,207.992065 865.072144,207.992065 
	C865.154358,209.509003 865.217957,210.682602 865.280334,211.832764 
	C876.990417,211.832764 888.285706,211.832764 899.932922,211.832764 
	C899.843628,210.448807 899.766663,209.256317 899.704285,208.290039 
	C897.523865,207.985184 895.696533,207.902451 893.966675,207.448456 
	C891.180420,206.717194 888.072876,206.025085 888.034546,202.254837 
	C887.946960,193.635681 888.006836,185.015045 888.006836,176.007385 
	C893.037415,176.007385 897.727783,175.523575 902.268372,176.140839 
	C906.989868,176.782684 911.480164,178.487747 912.128357,184.482101 
	C912.597595,188.821716 913.236755,193.152908 914.032471,197.444778 
	C915.031555,202.834000 914.333435,209.631683 921.677185,211.032074 
	C926.767883,212.002823 932.117126,211.732712 937.348755,211.699539 
	C937.980835,211.695541 938.600342,209.707642 939.392761,208.353714 
	C931.157471,207.685059 928.264282,205.915405 927.059509,200.856125 
	C926.199158,197.243576 925.935852,193.477615 924.932861,189.913269 
	C923.817627,185.949753 923.047913,181.353500 920.496765,178.481400 
	C917.987915,175.656906 913.434143,174.648758 910.561768,173.230667 
	C919.164673,171.334442 926.468445,165.348816 926.976746,158.879272 
	C927.769348,148.790268 925.950989,142.728470 914.541199,138.935959 
M1186.430176,136.000000 
	C1180.334106,136.000000 1174.238037,136.000000 1168.141846,136.000000 
	C1167.940186,136.594513 1167.738525,137.189026 1167.536865,137.783524 
	C1169.087769,138.522812 1170.570801,139.522461 1172.203491,139.948502 
	C1175.883545,140.908859 1178.460938,142.226807 1176.004883,146.621674 
	C1174.596924,149.140930 1173.413818,151.789062 1171.947754,154.271927 
	C1168.395264,160.288422 1164.736084,166.242020 1160.631226,173.029297 
	C1154.812744,162.697311 1149.445190,153.165756 1143.555054,142.706406 
	C1147.026245,141.457779 1150.216187,140.310272 1153.889160,138.989044 
	C1153.852173,138.463303 1153.769531,137.290527 1153.701294,136.322601 
	C1142.561279,136.322601 1131.849731,136.322601 1121.138184,136.322601 
	C1120.922119,136.752457 1120.706055,137.182327 1120.490112,137.612183 
	C1121.706909,138.418259 1122.854248,139.366043 1124.153809,140.003723 
	C1127.992188,141.887146 1131.232422,143.992493 1133.187622,148.299545 
	C1135.639160,153.700317 1139.118164,158.642853 1142.244873,163.727249 
	C1148.427734,173.781662 1154.398926,183.869110 1152.032349,196.487579 
	C1151.791138,197.774094 1151.942383,199.148010 1152.010986,200.476227 
	C1152.202759,204.183533 1150.477539,206.311676 1146.853027,207.011566 
	C1144.661011,207.434830 1142.487671,207.955414 1140.217041,208.451691 
	C1140.217041,209.532654 1140.217041,210.606583 1140.217041,211.792938 
	C1151.855469,211.792938 1163.283447,211.792938 1175.032837,211.792938 
	C1174.869873,210.374542 1174.734741,209.199295 1174.596802,207.999847 
	C1173.347778,207.999847 1172.490112,208.134979 1171.689087,207.978958 
	C1163.683472,206.419769 1162.713745,205.560959 1162.960815,198.625427 
	C1163.156128,193.138885 1162.864136,187.634567 1163.077148,182.149338 
	C1163.147217,180.341721 1163.827515,178.404938 1164.727173,176.807999 
	C1169.391846,168.527924 1174.187988,160.321228 1178.997925,152.124023 
	C1182.292969,146.508667 1185.623657,140.944443 1192.834473,139.500580 
	C1193.812378,139.304764 1194.534302,137.830032 1196.276978,136.000000 
	C1192.339111,136.000000 1189.870972,136.000000 1186.430176,136.000000 
M1042.894165,211.481430 
	C1043.363159,209.118881 1042.819336,208.281967 1040.006226,207.860245 
	C1030.001709,206.360458 1030.948975,206.401062 1030.980347,198.172592 
	C1031.045654,181.035660 1031.231689,163.893234 1030.856934,146.764252 
	C1030.746460,141.712234 1033.602173,140.886551 1037.116089,140.036316 
	C1038.059326,139.808075 1039.110352,139.929276 1040.101562,140.012299 
	C1043.555786,140.301605 1043.247559,138.433548 1042.643311,136.000412 
	C1031.541748,136.000412 1020.739624,136.079742 1009.939880,135.954041 
	C1006.518860,135.914215 1006.654480,137.488251 1007.371948,139.894821 
	C1008.264587,139.937225 1008.916870,139.988113 1009.569702,139.996201 
	C1017.784607,140.098145 1018.999939,141.300522 1019.000000,149.342972 
	C1019.000122,165.814621 1019.000122,182.286285 1019.000000,198.757935 
	C1018.999939,205.727646 1017.401489,207.443008 1010.340698,207.989609 
	C1009.381653,208.063843 1008.411926,207.999802 1007.072632,207.999802 
	C1007.153137,209.508499 1007.215698,210.680923 1007.283569,211.952118 
	C1019.158630,211.952118 1030.627563,211.952118 1042.894165,211.481430 
z"/>
<path fill="#9D2235" opacity="1.000000" stroke="none" 
	d="
M169.833344,5.000576 
	C169.888901,38.274338 169.946777,71.548096 169.998245,104.821861 
	C170.010086,112.475700 169.645004,120.149956 170.082886,127.778671 
	C170.746552,139.341187 166.549255,149.018143 159.879745,158.044998 
	C148.269684,173.758636 133.195999,185.525909 116.970840,195.976318 
	C109.755875,200.623383 102.476570,205.199936 94.981201,209.367340 
	C92.109734,210.963867 88.554146,211.329971 85.155151,212.628387 
	C84.250000,213.000000 83.500000,213.000000 82.260529,212.657654 
	C74.051949,208.148209 66.332840,203.981094 58.715073,199.402649 
	C58.067253,197.678986 57.618938,195.983780 56.518211,195.118835 
	C50.980328,190.767227 45.373951,186.486588 39.601124,182.453735 
	C29.617701,175.479370 21.768536,166.359726 13.663418,157.458542 
	C12.540391,156.225204 10.500406,155.826843 8.602121,154.923904 
	C8.175832,154.219055 8.032337,153.632233 8.174927,152.833374 
	C7.363172,151.036438 6.265335,149.451569 5.117959,147.723465 
	C5.202510,147.416000 5.242421,147.231628 5.381309,146.572235 
	C5.049646,141.185120 4.084711,136.254303 4.069510,131.320557 
	C3.945893,91.197182 4.083831,51.072853 3.890555,10.950029 
	C3.867231,6.108168 5.234931,4.879681 10.004611,4.894644 
	C63.280441,5.061774 116.556992,5.000389 169.833344,5.000576 
M151.948837,35.256802 
	C148.659698,30.363317 143.921112,33.971241 139.909027,33.339264 
	C139.415833,33.261578 138.643082,34.958691 137.228439,35.996231 
	C136.491013,37.144279 135.375671,38.201473 135.074463,39.454388 
	C131.972809,52.356087 129.079361,65.307861 125.975021,78.208893 
	C122.774460,91.509842 119.404282,104.769966 115.515747,117.570992 
	C115.004135,115.664795 114.454803,113.767815 113.986626,111.851006 
	C107.994759,87.319481 102.101578,62.762955 95.872932,38.291782 
	C95.351295,36.242363 92.513824,33.243259 90.889214,33.327457 
	C87.275856,33.514721 82.414841,30.224009 79.204369,36.001213 
	C78.029427,40.233925 76.744858,44.439728 75.698219,48.703930 
	C70.762749,68.812073 65.884102,88.934189 61.004547,109.056015 
	C59.728207,114.319252 58.521282,119.599319 57.282478,124.871666 
	C56.943935,124.829956 56.605392,124.788254 56.266853,124.746552 
	C49.115376,95.159378 41.963898,65.572205 34.855011,36.161247 
	C28.898695,36.161247 23.604528,36.161247 18.085678,36.161247 
	C27.291719,75.077187 36.449551,113.789345 45.656197,152.707840 
	C48.103092,151.956879 50.193619,151.315292 53.195641,150.873657 
	C57.741104,150.207306 62.353016,149.813416 66.796692,148.729691 
	C68.394188,148.340088 70.446358,146.504028 70.830177,144.964005 
	C74.420235,130.559357 77.550713,116.040382 81.120224,101.630302 
	C82.766487,94.984344 85.091499,88.506516 87.718391,82.203621 
	C88.560127,85.921349 89.389778,89.641861 90.246307,93.356178 
	C91.686401,99.601082 93.123466,105.846786 94.598671,112.083435 
	C96.441612,119.874779 98.201050,127.689110 100.238937,135.429688 
	C101.201363,139.085312 102.728310,142.592316 104.028763,146.931808 
	C108.141983,151.262344 113.631516,150.178787 119.357559,150.893906 
	C121.222145,151.560104 123.086739,152.226303 125.390511,153.456955 
	C129.851730,154.144928 128.381851,150.132904 128.792084,148.455215 
	C134.367569,125.653534 139.639908,102.777832 145.011353,79.926102 
	C147.848602,67.855537 150.865204,55.824646 153.486298,43.707802 
	C154.020523,41.238159 155.964386,37.842365 151.981644,36.017262 
	C151.981644,36.017262 151.942184,36.096832 151.948837,35.256802 
z"/>
<path fill="#9D2235" opacity="1.000000" stroke="none" 
	d="
M1103.536865,0.999994 
	C1105.660034,1.333321 1107.306763,1.846948 1108.982300,1.970233 
	C1118.643555,2.681132 1128.453979,2.480420 1137.946167,4.129523 
	C1154.845703,7.065531 1167.307373,22.745764 1169.922607,38.947052 
	C1171.867798,50.997093 1171.921143,62.901012 1167.192871,74.686882 
	C1161.233521,89.541969 1150.728760,98.945358 1135.299316,101.755852 
	C1126.292114,103.396545 1116.854614,102.736481 1107.607056,102.973297 
	C1101.962646,103.117859 1096.311523,103.000000 1090.381104,103.000000 
	C1090.239380,101.890129 1090.016479,100.956039 1090.015869,100.021828 
	C1089.997559,68.536018 1089.992188,37.050194 1090.030029,5.564433 
	C1090.031616,4.309546 1090.474365,3.055201 1090.855835,1.400304 
	C1095.024536,1.000000 1099.049072,1.000000 1103.536865,0.999994 
M1112.000000,45.500031 
	C1112.000000,57.908222 1112.000000,70.316414 1112.000000,82.555992 
	C1125.598267,84.245300 1138.312134,83.816322 1144.806519,70.097565 
	C1150.963867,57.090534 1150.857178,43.471310 1142.512207,31.251768 
	C1135.108276,20.410109 1123.515259,21.462263 1112.000000,22.308149 
	C1112.000000,29.909058 1112.000000,37.204552 1112.000000,45.500031 
z"/>
<path fill="#9D2235" opacity="1.000000" stroke="none" 
	d="
M1311.531372,0.999990 
	C1313.492676,1.333311 1314.982422,1.938002 1316.478638,1.954936 
	C1324.780762,2.048900 1333.084595,1.999993 1341.692993,1.999993 
	C1341.692993,8.650606 1341.692993,15.044145 1341.692993,21.901268 
	C1327.296753,21.901268 1312.904175,21.901268 1298.259277,21.901268 
	C1298.259277,28.751263 1298.259277,35.142906 1298.259277,41.822002 
	C1310.683228,41.822002 1322.955688,41.822002 1335.613525,41.822002 
	C1335.613525,48.483944 1335.613525,54.880825 1335.613525,61.744549 
	C1323.459351,61.744549 1311.064209,61.744549 1298.336792,61.744549 
	C1298.336792,68.921822 1298.336792,75.648880 1298.336792,82.841080 
	C1312.641724,82.841080 1327.034180,82.841080 1341.710571,82.841080 
	C1341.710571,89.688904 1341.710571,96.080315 1341.710571,102.738144 
	C1319.929077,102.738144 1298.213501,102.738144 1276.248535,102.738144 
	C1276.248535,69.230705 1276.248535,35.843792 1276.248535,2.214037 
	C1278.440674,2.062467 1280.544800,1.916982 1282.824463,1.385748 
	C1292.354248,1.000000 1301.708496,1.000000 1311.531372,0.999990 
z"/>
<path fill="#9D2235" opacity="1.000000" stroke="none" 
	d="
M431.531342,1.000001 
	C433.492828,1.333333 434.982574,1.938025 436.479004,1.954957 
	C444.781525,2.048902 453.085663,1.999993 461.693665,1.999993 
	C461.693665,8.652317 461.693665,15.046121 461.693665,21.904434 
	C447.294037,21.904434 432.900665,21.904434 418.257202,21.904434 
	C418.257202,28.755816 418.257202,35.147781 418.257202,41.827492 
	C431.022064,41.827492 443.628265,41.827492 456.616669,41.827492 
	C456.616669,48.489819 456.616669,54.886871 456.616669,61.751961 
	C444.118347,61.751961 431.389618,61.751961 418.332764,61.751961 
	C418.332764,68.930450 418.332764,75.657745 418.332764,82.850739 
	C432.984558,82.850739 447.710938,82.850739 462.715790,82.850739 
	C462.715790,89.699959 462.715790,96.092316 462.715790,102.743790 
	C440.916687,102.743790 419.200043,102.743790 397.241333,102.743790 
	C397.241333,69.207817 397.241333,35.812252 397.241333,2.223644 
	C399.100891,2.067752 400.876465,1.918903 402.826019,1.385026 
	C412.354218,1.000000 421.708466,1.000000 431.531342,1.000001 
z"/>
<path fill="#9D2235" opacity="1.000000" stroke="none" 
	d="
M671.531372,1.000000 
	C675.323975,1.333332 678.641479,1.824731 681.973511,1.959849 
	C686.106201,2.127440 690.250916,2.000000 694.693970,2.000000 
	C694.693970,8.651967 694.693970,15.044842 694.693970,21.899017 
	C680.298706,21.899017 665.907410,21.899017 651.261475,21.899017 
	C651.261475,28.745935 651.261475,35.136932 651.261475,41.989792 
	C664.126343,41.989792 676.852844,41.989792 689.784790,41.989792 
	C689.784790,48.717987 689.784790,54.992748 689.784790,61.729233 
	C677.140625,61.729233 664.413757,61.729233 651.345520,61.729233 
	C651.345520,68.902824 651.345520,75.629593 651.345520,82.818916 
	C665.953247,82.818916 680.677429,82.818916 695.698242,82.818916 
	C695.698242,89.662102 695.698242,96.053360 695.698242,102.724831 
	C673.958557,102.724831 652.244934,102.724831 630.265137,102.724831 
	C630.265137,69.278908 630.265137,35.906601 630.265137,1.786589 
	C634.429565,1.786589 638.527832,1.786589 642.813049,1.393295 
	C652.354248,1.000000 661.708435,1.000000 671.531372,1.000000 
z"/>
<path fill="#9D2235" opacity="1.000000" stroke="none" 
	d="
M967.531433,1.000010 
	C974.765076,4.569335 981.475098,8.249358 988.322327,11.653467 
	C991.059265,13.014128 990.058594,14.112810 988.783325,15.761084 
	C985.204468,20.386436 981.744873,25.104063 978.822754,29.004961 
	C972.310059,26.237051 966.014832,22.912216 959.315979,21.004366 
	C956.234619,20.126774 951.827515,21.138367 948.966431,22.861818 
	C943.901917,25.912546 943.856506,32.186619 949.370422,35.589363 
	C954.709106,38.883991 960.549866,41.423683 966.326416,43.935516 
	C973.558350,47.080208 981.054138,50.012081 985.794739,56.567486 
	C988.329407,60.072460 990.297546,64.581253 990.801819,68.840569 
	C991.963623,78.654915 991.002258,88.285027 982.930298,95.558365 
	C977.048340,100.858444 970.197937,103.337898 962.218628,104.158760 
	C948.800049,105.539177 936.919067,102.041374 925.837341,94.933388 
	C923.802063,93.627937 922.080261,91.833649 919.351624,89.540421 
	C923.534180,84.099236 927.833618,78.506035 932.204956,72.819244 
	C938.783142,79.112091 946.211609,83.283684 954.665955,84.598846 
	C958.327271,85.168381 963.052673,84.041664 966.144226,81.969170 
	C971.263489,78.537399 971.868958,72.175468 965.479492,68.337074 
	C959.848450,64.954330 953.535278,62.697926 947.494751,60.008434 
	C940.683472,56.975754 934.131042,53.762676 929.163818,47.777447 
	C919.379456,35.987953 922.156494,9.974500 942.110046,3.024344 
	C943.332275,2.598611 944.542664,2.138967 945.879272,1.347538 
	C953.020935,1.000000 960.041931,1.000000 967.531433,1.000010 
z"/>
<path fill="#9D2235" opacity="1.000000" stroke="none" 
	d="
M1436.000000,4.500000 
	C1434.994995,6.024356 1433.687866,6.884897 1433.030518,8.097683 
	C1423.523438,25.639959 1414.049683,43.201057 1404.734863,60.845818 
	C1403.647705,62.905190 1403.109253,65.482613 1403.075317,67.830887 
	C1402.908936,79.315697 1403.000000,90.804237 1403.000000,102.645432 
	C1395.779297,102.645432 1388.714722,102.645432 1381.000000,102.645432 
	C1381.000000,95.187866 1380.082520,87.456207 1381.191650,80.027054 
	C1383.474976,64.730881 1375.902832,52.917290 1369.143921,40.609871 
	C1362.281128,28.113295 1355.607300,15.512865 1348.547241,2.394058 
	C1357.177002,2.394058 1365.201660,2.394058 1373.741211,2.394058 
	C1378.709106,12.438082 1383.850708,22.913368 1389.088257,33.340450 
	C1389.918701,34.993816 1391.181885,36.429939 1392.244995,37.966488 
	C1393.636475,36.349464 1395.395020,34.924084 1396.356567,33.082596 
	C1400.872681,24.434061 1405.391846,15.772623 1409.442749,6.902421 
	C1411.217163,3.017031 1413.412109,1.417078 1417.657227,1.919418 
	C1420.600098,2.267642 1423.632446,1.858312 1426.812500,1.393734 
	C1429.166626,1.000000 1431.395996,1.325806 1433.485352,0.924019 
	C1436.654907,0.314478 1435.951904,2.345620 1436.000000,4.500000 
z"/>
<path fill="#9D2235" opacity="1.000000" stroke="none" 
	d="
M591.536804,1.000000 
	C593.993530,1.333333 595.982849,1.921359 597.981262,1.954155 
	C605.119629,2.071304 612.261047,2.000000 619.699219,2.000000 
	C619.699219,8.666609 619.699219,15.062348 619.699219,21.932251 
	C611.604553,21.932251 603.534912,21.932251 595.011963,21.932251 
	C595.011963,49.124512 595.011963,75.851364 595.011963,102.786499 
	C587.608154,102.786499 580.664001,102.786499 573.253052,102.786499 
	C573.253052,76.119362 573.253052,49.392567 573.253052,22.197229 
	C564.739685,22.197229 556.668457,22.197229 548.303101,22.197229 
	C548.303101,15.338419 548.303101,8.942541 548.303101,1.789630 
	C558.425903,1.789630 568.523743,1.789630 578.810791,1.394815 
	C583.024536,1.000000 587.049072,1.000000 591.536804,1.000000 
z"/>
<path fill="#FFFFFF" opacity="1.000000" stroke="none" 
	d="
M58.613731,199.813965 
	C66.332840,203.981094 74.051949,208.148209 81.885529,212.657654 
	C55.077423,213.000000 28.154850,213.000000 1.000000,213.000000 
	C1.000000,189.312943 1.000000,165.625137 1.347334,141.569092 
	C2.859164,143.142960 4.023659,145.085068 5.188153,147.027161 
	C5.242421,147.231628 5.202510,147.416000 5.046025,148.027481 
	C5.978700,149.998276 6.933772,151.521851 7.888843,153.045410 
	C8.032337,153.632233 8.175832,154.219055 8.656946,155.278076 
	C12.989101,160.659256 16.788982,165.743317 21.016275,170.442932 
	C31.802586,182.434433 45.347980,190.959442 58.613731,199.813965 
z"/>
<path fill="#262223" opacity="1.000000" stroke="none" 
	d="
M795.468628,213.000000 
	C793.456970,211.928650 791.914001,210.857300 790.370972,209.785950 
	C790.600525,209.296753 790.830078,208.807556 791.059631,208.318359 
	C792.166809,208.210037 793.327454,208.279282 794.372559,207.964752 
	C801.573425,205.797592 802.095032,207.327621 802.033264,198.781631 
	C801.917603,182.791748 801.820129,166.797607 802.072021,150.810852 
	C802.208435,142.152298 802.053894,140.154388 791.388306,139.792099 
	C790.557129,137.370575 790.617310,135.931961 793.993713,135.950256 
	C813.128052,136.053848 832.263245,136.000381 851.698608,136.000381 
	C851.698608,143.628433 851.698608,151.042526 851.698608,159.486938 
	C850.226746,158.495483 849.109314,157.785675 848.056335,156.990494 
	C847.884033,156.860336 848.094177,156.307587 847.962341,156.028015 
	C842.552307,144.553650 840.823730,139.994110 824.508972,139.999832 
	C821.200134,140.000992 817.891296,140.000000 814.000000,140.000000 
	C814.000000,145.158188 814.000000,150.089691 814.000000,155.021194 
	C814.000000,159.826675 814.000000,164.632141 814.000000,169.997635 
	C817.506409,169.997635 820.800720,170.244659 824.042847,169.938431 
	C828.644043,169.503845 831.703125,167.037659 833.076843,162.397034 
	C833.696655,160.303070 835.107849,158.443344 836.159912,156.477325 
	C836.665161,156.697479 837.170410,156.917633 837.675659,157.137787 
	C837.675659,167.344666 837.675659,177.551544 837.675659,188.632065 
	C836.192505,187.626556 834.575378,187.140427 834.132385,186.136261 
	C829.184326,174.920029 829.233093,174.899109 817.428589,174.999130 
	C816.459717,175.007339 815.490723,175.000183 814.261719,175.000183 
	C814.261719,185.690872 814.261719,196.090256 814.261719,206.985214 
	C821.080627,206.985214 827.960449,207.740967 834.600647,206.802139 
	C843.792786,205.502502 848.132568,198.419968 851.108398,190.282043 
	C851.666260,188.756561 853.466980,187.685532 854.694153,186.404800 
	C855.209229,186.760620 855.724243,187.116425 856.239319,187.472244 
	C855.748352,195.490219 855.257385,203.508194 854.725586,212.193085 
	C844.892151,212.193085 835.122070,212.193085 825.176025,212.596542 
	C815.312439,213.000000 805.624878,213.000000 795.468628,213.000000 
z"/>
<path fill="#262223" opacity="1.000000" stroke="none" 
	d="
M587.468567,213.000000 
	C585.219727,212.505844 583.439453,212.011673 580.887939,211.303406 
	C581.324097,210.362595 581.776428,208.218307 582.428040,208.155914 
	C592.572144,207.184509 593.648804,199.513443 593.880310,192.016602 
	C594.301636,178.373856 594.260132,164.701599 593.883728,151.056213 
	C593.710815,144.788544 591.880920,139.892441 581.352600,139.918823 
	C581.250244,138.772644 581.144714,137.590424 581.034485,136.355530 
	C581.798706,136.201080 582.272888,136.025040 582.748230,136.021851 
	C586.578308,135.996185 590.488159,136.495728 594.221558,135.893066 
	C601.092712,134.783890 605.102844,138.049911 608.796814,143.269119 
	C619.927185,158.995132 631.350586,174.513809 642.689026,190.092010 
	C643.015137,190.540054 643.670715,190.748322 645.000000,191.595963 
	C645.000000,181.443848 645.000000,172.062363 645.000000,162.680893 
	C645.000000,159.350220 645.034363,156.019104 644.992981,152.688950 
	C644.901489,145.320953 641.947449,141.751587 634.827454,139.942123 
	C633.309937,139.556473 631.972107,138.464081 630.551453,137.697281 
	C630.743103,137.240372 630.934814,136.783478 631.126465,136.326569 
	C641.000061,136.326569 650.873657,136.326569 661.612976,136.326569 
	C660.627075,137.801056 660.006958,139.725388 659.174255,139.822250 
	C648.852234,141.022995 649.337280,149.309219 649.163818,156.111832 
	C648.688660,174.751389 649.000000,193.411011 649.000000,212.531342 
	C647.611084,213.000000 646.222229,213.000000 644.414246,212.635925 
	C629.168335,192.016098 614.341492,171.760345 599.514587,151.504593 
	C599.013306,151.746246 598.512024,151.987900 598.010742,152.229553 
	C598.010742,167.293259 597.907593,182.358047 598.066589,197.420074 
	C598.122498,202.717819 601.412659,205.997467 606.242310,207.671463 
	C607.715515,208.182083 609.381897,208.135498 611.882385,208.466064 
	C610.674561,210.365967 609.837280,211.682983 609.000000,213.000000 
	C601.979065,213.000000 594.958069,213.000000 587.468567,213.000000 
z"/>
<path fill="#262223" opacity="1.000000" stroke="none" 
	d="
M946.416626,213.000000 
	C946.000000,204.523285 946.000000,196.046570 946.000000,185.722321 
	C948.007080,187.491165 949.443359,188.232788 950.086487,189.408340 
	C954.398193,197.290405 958.623962,205.237625 967.901123,208.377045 
	C974.305481,210.544266 981.372986,208.186478 985.855103,202.649521 
	C988.726440,199.102478 989.199463,192.412094 985.853027,188.100098 
	C983.811035,185.468857 980.497986,183.506851 977.369873,182.106064 
	C971.966187,179.686295 966.190613,178.112473 960.698975,175.870255 
	C949.316284,171.222763 944.750305,162.734375 948.345825,150.099243 
	C950.671814,141.925415 961.254333,134.096237 968.942993,134.970642 
	C974.614197,135.615616 980.312622,136.039398 986.007690,136.437164 
	C986.931213,136.501678 987.932434,135.994934 988.840698,135.615768 
	C990.362915,134.980331 991.839355,134.235138 993.837524,133.301285 
	C993.837524,141.716431 993.837524,149.170944 993.837524,158.305405 
	C991.631714,156.423111 990.077393,155.505692 989.083008,154.171066 
	C986.190857,150.289459 983.969421,145.815186 980.667969,142.352158 
	C974.996094,136.402878 961.466614,138.044571 958.774963,146.257782 
	C956.637756,152.779160 958.072937,158.800262 964.475342,161.983322 
	C969.779541,164.620392 975.279358,166.953888 980.876526,168.889664 
	C988.553528,171.544678 995.518616,175.173203 996.850952,183.875717 
	C998.404175,194.020325 995.825012,203.235229 986.891052,209.465881 
	C984.735718,210.969116 981.811279,211.369476 979.120239,212.638489 
	C974.310730,213.000000 969.621521,213.000000 964.333191,212.628204 
	C961.708496,211.815308 959.449890,211.798492 957.707581,210.841599 
	C954.444702,209.049591 952.553528,210.167236 951.000000,213.000000 
	C949.611084,213.000000 948.222229,213.000000 946.416626,213.000000 
z"/>
<path fill="#262223" opacity="1.000000" stroke="none" 
	d="
M1067.464600,213.000000 
	C1065.828125,211.717804 1064.656372,210.435593 1062.648682,208.238693 
	C1065.065186,208.084091 1065.720581,208.096527 1066.357300,207.993301 
	C1076.658447,206.323257 1077.124512,206.668365 1077.045410,197.053925 
	C1076.890625,178.252823 1077.000000,159.449539 1077.000000,140.704498 
	C1069.369873,138.535233 1062.143555,142.338226 1058.033936,149.850250 
	C1056.642700,152.393219 1055.540771,155.097458 1054.095947,157.606674 
	C1053.423950,158.773712 1052.248535,159.650940 1050.543457,161.466675 
	C1050.543457,152.139297 1050.543457,144.432556 1050.543457,136.360016 
	C1072.257324,136.360016 1093.431030,136.360016 1114.744141,136.360016 
	C1115.238281,144.104950 1115.728271,151.784637 1116.218384,159.464325 
	C1115.729126,159.833176 1115.239990,160.202011 1114.750854,160.570847 
	C1113.506470,159.322678 1111.724121,158.294373 1111.108765,156.789062 
	C1108.105835,149.442413 1104.929932,142.386154 1096.063232,140.575378 
	C1093.994385,140.152878 1091.861816,140.042511 1089.264038,139.728821 
	C1089.163452,141.467651 1089.011963,142.879578 1089.010742,144.291641 
	C1088.994385,162.110474 1088.989136,179.929337 1089.004517,197.748169 
	C1089.012207,206.587112 1087.573242,205.042740 1097.202759,207.935028 
	C1098.238403,208.246078 1099.448242,207.976929 1100.783936,207.976929 
	C1100.783936,209.412766 1100.783936,210.501068 1100.783936,212.193192 
	C1094.268799,212.193192 1087.810425,212.193192 1081.176025,212.596588 
	C1076.643066,213.000000 1072.286255,213.000000 1067.464600,213.000000 
z"/>
<path fill="#262223" opacity="1.000000" stroke="none" 
	d="
M527.467957,213.000000 
	C524.286194,211.798584 521.565369,210.612747 518.859924,209.392807 
	C511.352478,206.007492 508.059784,199.936020 508.018738,191.958115 
	C507.950165,178.637009 508.000000,165.315277 508.000000,151.993820 
	C508.000000,140.824097 507.593689,140.390030 496.407684,139.814331 
	C495.576324,137.444260 495.511597,135.908295 498.944580,135.953094 
	C509.085754,136.085464 519.229736,136.000397 529.681274,136.000397 
	C529.681274,137.381226 529.681274,138.556595 529.681274,140.002014 
	C528.020935,140.002014 526.515198,139.804703 525.080566,140.040482 
	C521.364014,140.651321 518.860168,142.161713 518.926880,146.718918 
	C519.129089,160.536972 518.681824,174.369431 519.095642,188.178040 
	C519.459106,200.303055 525.354675,207.897446 541.730896,208.137375 
	C551.465942,208.280029 560.492432,197.146988 560.115906,187.865051 
	C559.637207,176.061661 560.010132,164.224136 559.996155,152.401352 
	C559.987976,145.527100 556.770935,141.645264 550.058044,139.942261 
	C548.457153,139.536133 547.038269,138.412766 545.535645,137.619293 
	C545.746521,137.164948 545.957397,136.710587 546.168274,136.256241 
	C546.811279,136.171509 547.454102,136.014145 548.097168,136.013016 
	C557.242798,135.996964 566.388489,136.002060 576.416138,137.187576 
	C575.252686,138.124985 574.226379,139.528030 572.901855,139.918076 
	C567.563477,141.490097 565.013184,144.559082 565.005310,150.134583 
	C564.988159,162.290405 565.177185,174.449768 564.935120,186.600784 
	C564.783997,194.191284 563.593201,201.773346 556.783813,206.552826 
	C553.311584,208.989929 549.116882,210.397522 545.124390,212.635239 
	C539.311951,213.000000 533.623962,213.000000 527.467957,213.000000 
z"/>
<path fill="#262223" opacity="1.000000" stroke="none" 
	d="
M745.416626,213.000000 
	C740.671814,201.594452 736.341431,190.189743 732.016113,178.783096 
	C728.087097,168.421539 724.092834,158.083862 720.271301,147.682770 
	C718.663635,143.307327 715.814941,140.788193 711.219360,139.920349 
	C709.882935,139.667984 708.729675,138.445953 707.492493,137.668381 
	C707.701843,137.225174 707.911255,136.781982 708.120605,136.338776 
	C719.165466,136.338776 730.210327,136.338776 741.686157,136.338776 
	C741.763123,137.272751 741.859436,138.442047 741.987854,140.000183 
	C740.631775,140.000183 739.666687,139.937119 738.712036,140.010300 
	C731.981689,140.526230 730.872559,142.041367 733.064514,148.251938 
	C738.413208,163.406525 743.856018,178.527924 749.295898,193.650070 
	C749.601562,194.499680 750.223328,195.235535 751.223267,196.897385 
	C753.331360,191.490082 755.215454,186.824875 756.974060,182.112808 
	C761.016357,171.281281 765.261963,160.514587 768.898926,149.547104 
	C770.899475,143.514450 769.748230,142.196472 763.829834,139.986404 
	C762.327759,139.425507 760.974121,138.467133 759.552246,137.691406 
	C759.743591,137.238983 759.934937,136.786575 760.126343,136.334167 
	C768.998596,136.334167 777.870789,136.334167 787.873840,136.334167 
	C786.514221,137.912094 785.803162,139.538330 784.691956,139.886093 
	C780.249695,141.276321 777.618469,144.237885 775.940002,148.397919 
	C769.988586,163.148697 763.981628,177.877060 757.992981,192.612808 
	C755.334229,199.154785 752.668884,205.694061 750.003296,212.617279 
	C748.611084,213.000000 747.222229,213.000000 745.416626,213.000000 
z"/>
<path fill="#FFFFFF" opacity="1.000000" stroke="none" 
	d="
M609.468628,213.000000 
	C609.837280,211.682983 610.674561,210.365967 611.882385,208.466064 
	C609.381897,208.135498 607.715515,208.182083 606.242310,207.671463 
	C601.412659,205.997467 598.122498,202.717819 598.066589,197.420074 
	C597.907593,182.358047 598.010742,167.293259 598.010742,152.229553 
	C598.512024,151.987900 599.013306,151.746246 599.514587,151.504593 
	C614.341492,171.760345 629.168335,192.016098 643.997559,212.635925 
	C632.645752,213.000000 621.291565,213.000000 609.468628,213.000000 
z"/>
<path fill="#262223" opacity="1.000000" stroke="none" 
	d="
M667.468628,213.000000 
	C667.000000,211.513641 667.000000,210.027283 667.000000,208.632492 
	C667.439697,208.373749 667.711060,208.078873 667.994446,208.066803 
	C680.171875,207.547607 680.179565,204.208923 680.058411,195.480423 
	C679.848022,180.317215 679.828857,165.146240 680.073364,149.984070 
	C680.192749,142.581985 677.325073,139.703568 670.408203,140.037170 
	C667.623901,140.171463 666.228760,139.494507 667.329346,136.232483 
	C679.004211,136.232483 690.770325,136.232483 702.764587,136.232483 
	C702.764587,137.385376 702.764587,138.454422 702.764587,140.000061 
	C701.260559,140.000061 699.809509,139.968384 698.360229,140.005692 
	C692.988708,140.143967 691.005554,142.140839 691.003052,147.441147 
	C690.994812,164.607193 690.999939,181.773224 691.000122,198.939270 
	C691.000183,205.723694 692.491211,207.350067 699.368591,207.986374 
	C700.351501,208.077301 701.350098,207.998978 703.727417,207.998978 
	C702.673828,209.822021 701.972961,211.034836 701.135986,212.623840 
	C689.979126,213.000000 678.958191,213.000000 667.468628,213.000000 
z"/>
<path fill="#9D2235" opacity="1.000000" stroke="none" 
	d="
M5.381310,146.572235 
	C4.023659,145.085068 2.859164,143.142960 1.347334,141.100433 
	C1.000000,94.979103 1.000000,48.958210 1.468657,2.468657 
	C21.642542,2.000000 41.347847,2.023813 61.052845,1.956661 
	C62.702965,1.951038 64.350998,1.333333 66.000000,1.000000 
	C75.687561,1.000000 85.375122,1.000000 95.720551,1.394830 
	C107.266090,1.857622 118.153732,1.942886 129.041443,1.950529 
	C129.694077,1.950987 130.347137,1.331183 131.000000,1.000000 
	C135.024551,1.000000 139.049088,1.000000 143.536819,1.000000 
	C146.624268,1.333334 149.242050,1.872932 151.874176,1.955511 
	C156.804794,2.110200 161.749588,1.871593 166.674713,2.097207 
	C167.804047,2.148940 168.877548,3.419159 169.905045,4.564590 
	C116.556992,5.000389 63.280441,5.061774 10.004611,4.894644 
	C5.234931,4.879681 3.867231,6.108168 3.890555,10.950029 
	C4.083831,51.072853 3.945893,91.197182 4.069510,131.320557 
	C4.084711,136.254303 5.049646,141.185120 5.381310,146.572235 
z"/>
<path fill="#9D2235" opacity="1.000000" stroke="none" 
	d="
M517.531616,0.999997 
	C521.779541,2.360930 525.559082,3.721867 529.141235,5.451770 
	C528.778931,5.838492 528.608643,5.892551 528.449951,5.868817 
	C518.003357,4.306509 507.573547,2.792708 496.980011,4.846062 
	C495.814636,5.071950 494.351868,3.763492 493.027008,3.166661 
	C494.603668,2.675366 496.180298,2.184077 497.878479,1.346393 
	C504.354401,1.000000 510.708832,1.000000 517.531616,0.999997 
z"/>
<path fill="#FFFFFF" opacity="1.000000" stroke="none" 
	d="
M65.531342,1.000000 
	C64.350998,1.333333 62.702965,1.951038 61.052845,1.956661 
	C41.347847,2.023813 21.642542,2.000000 1.468657,2.000000 
	C2.322206,1.666667 3.643528,1.047009 4.966750,1.042924 
	C24.998579,0.981087 45.030663,1.000000 65.531342,1.000000 
z"/>
<path fill="#FFFFFF" opacity="1.000000" stroke="none" 
	d="
M130.531342,1.000000 
	C130.347137,1.331183 129.694077,1.950987 129.041443,1.950529 
	C118.153732,1.942886 107.266090,1.857622 96.189209,1.394830 
	C107.354225,1.000000 118.708458,1.000000 130.531342,1.000000 
z"/>
<path fill="#FFFFFF" opacity="1.000000" stroke="none" 
	d="
M951.463196,213.000000 
	C952.553528,210.167236 954.444702,209.049591 957.707581,210.841599 
	C959.449890,211.798492 961.708496,211.815308 963.867065,212.628204 
	C959.975464,213.000000 955.950928,213.000000 951.463196,213.000000 
z"/>
<path fill="#9D2235" opacity="1.000000" stroke="none" 
	d="
M353.280853,45.366745 
	C357.172943,30.772943 360.848419,16.543274 364.546326,2.226605 
	C371.926849,2.226605 379.363373,2.226605 387.152405,2.226605 
	C384.247711,12.626130 381.445984,22.731136 378.602020,32.824242 
	C372.331757,55.076649 366.014435,77.315842 359.785553,99.579788 
	C358.865051,102.870094 357.301056,104.398254 353.572357,104.098328 
	C348.616852,103.699730 343.605133,103.999985 338.327942,103.999985 
	C332.565582,83.929398 326.837555,63.978416 321.109528,44.027439 
	C320.663452,44.005260 320.217407,43.983082 319.771332,43.960907 
	C314.051788,63.900860 308.332245,83.840813 302.550293,103.998329 
	C296.823181,103.998329 291.162964,104.174629 285.530090,103.860863 
	C284.290619,103.791817 282.438629,102.193779 282.066986,100.943619 
	C276.263184,81.419861 270.632935,61.844273 265.012726,42.266270 
	C261.445374,29.839437 257.956879,17.389965 254.447510,4.946558 
	C254.231064,4.179102 254.141800,3.375779 253.882996,2.004259 
	C261.102875,2.004259 268.046600,1.823326 274.960999,2.192240 
	C276.043396,2.249990 277.513794,4.670325 277.923676,6.229789 
	C282.884216,25.103544 287.679291,44.020802 293.625671,63.219631 
	C294.732391,60.205929 296.069092,57.254692 296.907379,54.168083 
	C301.358093,37.780964 305.612213,21.339855 310.191345,4.989392 
	C310.549347,3.711030 312.826172,2.230813 314.294952,2.135526 
	C319.595306,1.791670 324.931519,2.000307 330.366455,2.000307 
	C336.068787,22.410206 341.736115,42.694923 347.403473,62.979641 
	C347.897491,63.046227 348.391510,63.112816 348.885529,63.179405 
	C350.278412,57.363228 351.671295,51.547050 353.280853,45.366745 
z"/>
<path fill="#9D2235" opacity="1.000000" stroke="none" 
	d="
M1182.000000,37.000000 
	C1182.000000,25.198824 1182.000000,13.897646 1182.000000,2.006372 
	C1188.532715,2.006372 1194.807007,1.818283 1201.052612,2.159358 
	C1202.358154,2.230654 1203.857666,4.054448 1204.759155,5.409127 
	C1215.183838,21.072437 1225.512573,36.799469 1235.858887,52.514828 
	C1236.734863,53.845512 1237.553711,55.213978 1239.412964,56.544834 
	C1239.412964,38.541630 1239.412964,20.538424 1239.412964,2.273216 
	C1247.056641,2.273216 1253.782349,2.273216 1260.755615,2.273216 
	C1260.755615,35.771610 1260.755615,69.152222 1260.755615,102.998161 
	C1255.150391,102.998161 1249.692627,103.158112 1244.257690,102.875542 
	C1243.036743,102.812057 1241.550781,101.433563 1240.770264,100.269279 
	C1228.761230,82.355583 1216.848877,64.377144 1204.312988,45.509144 
	C1204.312988,65.079185 1204.312988,83.702347 1204.312988,102.660995 
	C1196.748291,102.660995 1189.686768,102.660995 1182.000000,102.660995 
	C1182.000000,80.997658 1182.000000,59.248829 1182.000000,37.000000 
z"/>
<path fill="#9D2235" opacity="1.000000" stroke="none" 
	d="
M854.000000,23.000160 
	C854.000000,15.864556 854.000000,9.228917 854.000000,2.298281 
	C861.335388,2.298281 868.394409,2.298281 875.728149,2.298281 
	C875.728149,35.708916 875.728149,69.082664 875.728149,102.998177 
	C869.906738,102.998177 864.124878,103.186592 858.372437,102.858521 
	C857.025452,102.781700 855.398254,101.204659 854.542358,99.897255 
	C842.915833,82.136932 831.403503,64.301849 819.855225,46.490242 
	C819.589966,46.081104 819.234436,45.730442 818.289124,44.590542 
	C818.289124,64.423698 818.289124,83.381180 818.289124,102.667450 
	C811.069702,102.667450 804.343018,102.667450 797.305786,102.667450 
	C797.305786,69.359657 797.305786,35.985668 797.305786,2.005005 
	C803.184204,2.005005 809.122375,1.814252 815.031067,2.146761 
	C816.410156,2.224363 818.074158,3.823254 818.955872,5.153742 
	C829.707886,21.379042 840.334534,37.687447 851.011719,53.962437 
	C851.515320,54.730045 852.187805,55.386898 854.000000,55.937424 
	C854.000000,45.124992 854.000000,34.312557 854.000000,23.000160 
z"/>
<path fill="#9D2235" opacity="1.000000" stroke="none" 
	d="
M772.010681,103.000000 
	C762.388123,105.316864 758.168762,100.224754 754.826721,92.693352 
	C752.011414,86.348854 748.070190,80.511513 744.792480,74.361671 
	C742.959656,70.923012 740.455139,69.354889 736.500000,69.949722 
	C734.568359,70.240234 732.556946,70.000000 730.132812,70.000000 
	C730.132812,80.990005 730.132812,91.720879 730.132812,102.721710 
	C722.623413,102.721710 715.567322,102.721710 708.253906,102.721710 
	C708.253906,69.261192 708.253906,35.893822 708.253906,2.025102 
	C723.772217,2.025102 739.229492,1.430025 754.604614,2.294834 
	C761.520264,2.683818 768.238281,5.675402 773.681458,11.019687 
	C782.272095,19.454195 783.970154,29.948187 782.780884,40.889175 
	C781.576904,51.964790 776.047668,60.807606 764.638794,65.529526 
	C771.741211,78.015862 778.731934,90.305901 785.952576,103.000000 
	C781.089050,103.000000 776.795593,103.000000 772.010681,103.000000 
M730.000000,26.637596 
	C730.000000,34.719654 730.000000,42.801716 730.000000,50.999989 
	C735.399963,50.999989 740.059265,51.000011 744.718628,50.999962 
	C745.218445,50.999954 745.719421,51.022011 746.217896,50.995968 
	C754.149292,50.581638 760.553711,45.253906 760.909119,38.003330 
	C761.307800,29.872019 758.595642,24.022358 750.352600,22.383619 
	C744.418518,21.203911 738.075195,21.946190 731.926880,22.171490 
	C731.242737,22.196560 730.640320,24.450953 730.000000,26.637596 
z"/>
<path fill="#9D2235" opacity="1.000000" stroke="none" 
	d="
M492.678101,3.183890 
	C494.351868,3.763492 495.814636,5.071950 496.980011,4.846062 
	C507.573547,2.792708 518.003357,4.306509 528.449951,5.868817 
	C528.608643,5.892551 528.778931,5.838492 529.420166,5.740211 
	C533.583313,7.918621 537.270203,10.177556 541.431885,12.727434 
	C537.537109,18.192316 534.131836,22.970371 530.090698,27.757627 
	C528.601746,27.074183 527.366943,26.553246 526.964233,25.658009 
	C525.526123,22.461035 523.598450,22.801506 521.286438,24.507313 
	C518.989563,23.605377 516.692688,22.703444 514.153809,21.137634 
	C513.226868,20.593359 512.541992,20.712959 511.857086,20.832561 
	C511.675659,20.869841 511.494263,20.907120 511.065491,20.469406 
	C508.737213,16.708296 505.114532,17.052958 502.000336,20.833336 
	C491.719482,27.967667 496.311584,34.127335 503.781097,37.892399 
	C510.562927,41.310844 517.653931,44.113594 524.592957,47.222813 
	C545.100403,56.411720 546.865173,78.959114 535.309937,93.998245 
	C530.707581,99.988182 523.703918,102.840240 516.289612,103.946533 
	C498.797760,106.556526 483.640839,101.265106 469.855072,89.496239 
	C474.339478,83.909981 478.760376,78.402863 483.253815,72.805344 
	C489.787079,79.516205 497.357788,83.810837 506.080536,84.676682 
	C510.002533,85.066002 515.318237,83.560562 518.057007,80.907532 
	C522.272278,76.824158 521.984619,71.225876 515.968933,68.105423 
	C507.955872,63.948940 499.507324,60.641865 491.369934,56.712925 
	C480.429932,51.430805 473.810028,43.160152 475.093292,30.399754 
	C475.605011,25.311398 477.158600,20.327818 478.954651,15.138636 
	C485.203705,14.170172 487.271515,11.516171 486.463135,6.263609 
	C488.418488,5.242774 490.373810,4.221943 492.678101,3.183890 
z"/>
<path fill="#9D2235" opacity="1.000000" stroke="none" 
	d="
M1065.714355,29.704117 
	C1060.249878,39.900494 1054.926025,49.748409 1049.840088,59.717766 
	C1048.776489,61.802570 1048.113892,64.328209 1048.080078,66.662453 
	C1047.906982,78.612068 1048.000000,90.565536 1048.000000,102.756805 
	C1040.548096,102.756805 1033.489136,102.756805 1026.000000,102.756805 
	C1026.000000,90.939781 1026.122314,79.323364 1025.907471,67.713181 
	C1025.858521,65.063339 1025.120972,62.185459 1023.888916,59.838566 
	C1017.402588,47.483814 1010.653870,35.266834 1004.000610,22.999725 
	C1000.371094,16.307783 996.750061,9.611251 992.641113,2.022621 
	C1000.916565,2.022621 1008.754944,1.922730 1016.582703,2.164960 
	C1017.439819,2.191483 1018.417542,4.091140 1019.032227,5.280687 
	C1024.840210,16.521338 1030.581665,27.796392 1036.814087,39.984241 
	C1038.151489,37.451717 1039.119019,35.709656 1040.005005,33.927078 
	C1044.707275,24.466187 1049.406250,15.003584 1054.065674,5.521578 
	C1055.236694,3.138651 1056.605103,1.751070 1059.700928,1.901356 
	C1066.335327,2.223418 1072.996094,2.000071 1080.638794,2.000071 
	C1075.524902,11.532110 1070.732300,20.465487 1065.714355,29.704117 
z"/>
<path fill="#262223" opacity="1.000000" stroke="none" 
	d="
M914.944946,138.965988 
	C925.950989,142.728470 927.769348,148.790268 926.976746,158.879272 
	C926.468445,165.348816 919.164673,171.334442 910.561768,173.230667 
	C913.434143,174.648758 917.987915,175.656906 920.496765,178.481400 
	C923.047913,181.353500 923.817627,185.949753 924.932861,189.913269 
	C925.935852,193.477615 926.199158,197.243576 927.059509,200.856125 
	C928.264282,205.915405 931.157471,207.685059 939.392761,208.353714 
	C938.600342,209.707642 937.980835,211.695541 937.348755,211.699539 
	C932.117126,211.732712 926.767883,212.002823 921.677185,211.032074 
	C914.333435,209.631683 915.031555,202.834000 914.032471,197.444778 
	C913.236755,193.152908 912.597595,188.821716 912.128357,184.482101 
	C911.480164,178.487747 906.989868,176.782684 902.268372,176.140839 
	C897.727783,175.523575 893.037415,176.007385 888.006836,176.007385 
	C888.006836,185.015045 887.946960,193.635681 888.034546,202.254837 
	C888.072876,206.025085 891.180420,206.717194 893.966675,207.448456 
	C895.696533,207.902451 897.523865,207.985184 899.704285,208.290039 
	C899.766663,209.256317 899.843628,210.448807 899.932922,211.832764 
	C888.285706,211.832764 876.990417,211.832764 865.280334,211.832764 
	C865.217957,210.682602 865.154358,209.509003 865.072144,207.992065 
	C866.747803,207.992065 868.068909,208.143204 869.344604,207.966324 
	C875.437927,207.121445 876.997192,205.275452 876.998657,199.076126 
	C877.002502,183.243820 877.000000,167.411499 877.000000,151.579193 
	C877.000000,140.866821 876.439087,140.286819 865.303284,139.855942 
	C865.230652,138.712753 865.155701,137.531693 865.122070,137.002365 
	C880.009827,137.002365 894.562988,136.934982 909.113770,137.087784 
	C910.929199,137.106842 912.732361,138.291428 914.944946,138.965988 
M914.967041,152.917130 
	C910.909729,141.932007 901.244080,137.533081 888.000000,140.734390 
	C888.000000,145.837173 888.000000,150.972122 888.000000,156.107056 
	C888.000000,161.345352 888.000000,166.583633 888.000000,171.771042 
	C909.592224,173.039413 914.389893,168.199234 914.967041,152.917130 
z"/>
<path fill="#262223" opacity="1.000000" stroke="none" 
	d="
M1186.916504,136.000000 
	C1189.870972,136.000000 1192.339111,136.000000 1196.276978,136.000000 
	C1194.534302,137.830032 1193.812378,139.304764 1192.834473,139.500580 
	C1185.623657,140.944443 1182.292969,146.508667 1178.997925,152.124023 
	C1174.187988,160.321228 1169.391846,168.527924 1164.727173,176.807999 
	C1163.827515,178.404938 1163.147217,180.341721 1163.077148,182.149338 
	C1162.864136,187.634567 1163.156128,193.138885 1162.960815,198.625427 
	C1162.713745,205.560959 1163.683472,206.419769 1171.689087,207.978958 
	C1172.490112,208.134979 1173.347778,207.999847 1174.596802,207.999847 
	C1174.734741,209.199295 1174.869873,210.374542 1175.032837,211.792938 
	C1163.283447,211.792938 1151.855469,211.792938 1140.217041,211.792938 
	C1140.217041,210.606583 1140.217041,209.532654 1140.217041,208.451691 
	C1142.487671,207.955414 1144.661011,207.434830 1146.853027,207.011566 
	C1150.477539,206.311676 1152.202759,204.183533 1152.010986,200.476227 
	C1151.942383,199.148010 1151.791138,197.774094 1152.032349,196.487579 
	C1154.398926,183.869110 1148.427734,173.781662 1142.244873,163.727249 
	C1139.118164,158.642853 1135.639160,153.700317 1133.187622,148.299545 
	C1131.232422,143.992493 1127.992188,141.887146 1124.153809,140.003723 
	C1122.854248,139.366043 1121.706909,138.418259 1120.490112,137.612183 
	C1120.706055,137.182327 1120.922119,136.752457 1121.138184,136.322601 
	C1131.849731,136.322601 1142.561279,136.322601 1153.701294,136.322601 
	C1153.769531,137.290527 1153.852173,138.463303 1153.889160,138.989044 
	C1150.216187,140.310272 1147.026245,141.457779 1143.555054,142.706406 
	C1149.445190,153.165756 1154.812744,162.697311 1160.631226,173.029297 
	C1164.736084,166.242020 1168.395264,160.288422 1171.947754,154.271927 
	C1173.413818,151.789062 1174.596924,149.140930 1176.004883,146.621674 
	C1178.460938,142.226807 1175.883545,140.908859 1172.203491,139.948502 
	C1170.570801,139.522461 1169.087769,138.522812 1167.536865,137.783524 
	C1167.738525,137.189026 1167.940186,136.594513 1168.141846,136.000000 
	C1174.238037,136.000000 1180.334106,136.000000 1186.916504,136.000000 
z"/>
<path fill="#262223" opacity="1.000000" stroke="none" 
	d="
M1042.495361,211.716766 
	C1030.627563,211.952118 1019.158630,211.952118 1007.283569,211.952118 
	C1007.215698,210.680923 1007.153137,209.508499 1007.072632,207.999802 
	C1008.411926,207.999802 1009.381653,208.063843 1010.340698,207.989609 
	C1017.401489,207.443008 1018.999939,205.727646 1019.000000,198.757935 
	C1019.000122,182.286285 1019.000122,165.814621 1019.000000,149.342972 
	C1018.999939,141.300522 1017.784607,140.098145 1009.569702,139.996201 
	C1008.916870,139.988113 1008.264587,139.937225 1007.371948,139.894821 
	C1006.654480,137.488251 1006.518860,135.914215 1009.939880,135.954041 
	C1020.739624,136.079742 1031.541748,136.000412 1042.643311,136.000412 
	C1043.247559,138.433548 1043.555786,140.301605 1040.101562,140.012299 
	C1039.110352,139.929276 1038.059326,139.808075 1037.116089,140.036316 
	C1033.602173,140.886551 1030.746460,141.712234 1030.856934,146.764252 
	C1031.231689,163.893234 1031.045654,181.035660 1030.980347,198.172592 
	C1030.948975,206.401062 1030.001709,206.360458 1040.006226,207.860245 
	C1042.819336,208.281967 1043.363159,209.118881 1042.495361,211.716766 
z"/>
<path fill="#9D2235" opacity="1.000000" stroke="none" 
	d="
M486.194458,6.451647 
	C487.271515,11.516171 485.203705,14.170172 479.278137,14.969416 
	C481.231842,12.185296 483.578827,9.412488 486.194458,6.451647 
z"/>
<path fill="#9D2235" opacity="1.000000" stroke="none" 
	d="
M521.556824,24.724943 
	C523.598450,22.801506 525.526123,22.461035 526.964233,25.658009 
	C527.366943,26.553246 528.601746,27.074183 529.780579,27.908291 
	C529.296265,28.415417 528.178284,29.314754 527.728882,29.055441 
	C525.659668,27.861269 523.776917,26.343958 521.556824,24.724943 
z"/>
<path fill="#9D2235" opacity="1.000000" stroke="none" 
	d="
M502.411926,20.905666 
	C505.114532,17.052958 508.737213,16.708296 510.803406,20.377392 
	C508.133636,20.832911 505.478607,20.905455 502.411926,20.905666 
z"/>
<path fill="#9D2235" opacity="1.000000" stroke="none" 
	d="
M512.120422,20.905823 
	C512.541992,20.712959 513.226868,20.593359 513.958008,20.820875 
	C513.464111,21.105021 512.923950,21.042051 512.120422,20.905823 
z"/>
<path fill="#FFFFFF" opacity="1.000000" stroke="none" 
	d="
M124.951340,152.892487 
	C123.086739,152.226303 121.222145,151.560104 118.777252,150.488007 
	C113.464447,148.776962 108.731956,147.471817 103.999474,146.166656 
	C102.728310,142.592316 101.201363,139.085312 100.238937,135.429688 
	C98.201050,127.689110 96.441612,119.874779 94.598671,112.083435 
	C93.123466,105.846786 91.686401,99.601082 90.246307,93.356178 
	C89.389778,89.641861 88.560127,85.921349 87.366333,81.773682 
	C87.023666,80.933418 87.033051,80.523087 87.299042,80.018494 
	C87.384537,79.578522 87.213425,79.232819 87.023788,78.500717 
	C86.598900,76.464081 86.192535,74.813835 85.786171,73.163589 
	C85.446404,73.153229 85.106628,73.142868 84.766853,73.132507 
	C78.984901,97.383408 73.202950,121.634308 67.660316,144.881439 
	C62.138416,146.961563 57.211281,148.817627 52.284145,150.673706 
	C50.193619,151.315292 48.103092,151.956879 45.656197,152.707840 
	C36.449551,113.789345 27.291719,75.077187 18.085678,36.161247 
	C23.604528,36.161247 28.898695,36.161247 34.855011,36.161247 
	C41.963898,65.572205 49.115376,95.159378 56.266853,124.746552 
	C56.605392,124.788254 56.943935,124.829956 57.282478,124.871666 
	C58.521282,119.599319 59.728207,114.319252 61.004547,109.056015 
	C65.884102,88.934189 70.762749,68.812073 75.698219,48.703930 
	C76.744858,44.439728 78.029427,40.233925 80.057861,35.990189 
	C83.405022,35.986149 85.905807,36.114563 88.390480,35.968559 
	C91.320290,35.796398 92.549690,36.564331 93.202347,39.907684 
	C94.932388,48.770092 97.508003,57.464512 99.631691,66.253685 
	C102.818886,79.444328 105.853622,92.671898 109.062195,105.857239 
	C110.535736,111.912628 112.268166,117.905006 113.883202,123.925949 
	C114.364380,123.916229 114.845558,123.906502 115.326729,123.896782 
	C115.587257,121.947174 115.847786,119.997559 116.108315,118.047951 
	C119.404282,104.769966 122.774460,91.509842 125.975021,78.208893 
	C129.079361,65.307861 131.972809,52.356087 135.074463,39.454388 
	C135.375671,38.201473 136.491013,37.144279 138.073456,35.987785 
	C143.259720,36.018505 147.600952,36.057671 151.942184,36.096832 
	C151.942184,36.096832 151.981644,36.017262 151.984177,36.441898 
	C151.657120,38.270950 151.330963,39.676186 150.997406,41.079655 
	C144.688339,67.624428 138.331406,94.157944 132.091660,120.718987 
	C129.579529,131.412460 127.323784,142.166183 124.951340,152.892487 
z"/>
<path fill="#9D2235" opacity="1.000000" stroke="none" 
	d="
M125.170929,153.174713 
	C127.323784,142.166183 129.579529,131.412460 132.091660,120.718987 
	C138.331406,94.157944 144.688339,67.624428 150.997406,41.079655 
	C151.330963,39.676186 151.657120,38.270950 151.944214,36.461273 
	C155.964386,37.842365 154.020523,41.238159 153.486298,43.707802 
	C150.865204,55.824646 147.848602,67.855537 145.011353,79.926102 
	C139.639908,102.777832 134.367569,125.653534 128.792084,148.455215 
	C128.381851,150.132904 129.851730,154.144928 125.170929,153.174713 
z"/>
<path fill="#9D2235" opacity="1.000000" stroke="none" 
	d="
M115.812027,117.809471 
	C115.847786,119.997559 115.587257,121.947174 115.326729,123.896782 
	C114.845558,123.906502 114.364380,123.916229 113.883202,123.925949 
	C112.268166,117.905006 110.535736,111.912628 109.062195,105.857239 
	C105.853622,92.671898 102.818886,79.444328 99.631691,66.253685 
	C97.508003,57.464512 94.932388,48.770092 93.202347,39.907684 
	C92.549690,36.564331 91.320290,35.796398 88.390480,35.968559 
	C85.905807,36.114563 83.405022,35.986149 80.455612,35.906250 
	C82.414841,30.224009 87.275856,33.514721 90.889214,33.327457 
	C92.513824,33.243259 95.351295,36.242363 95.872932,38.291782 
	C102.101578,62.762955 107.994759,87.319481 113.986626,111.851006 
	C114.454803,113.767815 115.004135,115.664795 115.812027,117.809471 
z"/>
<path fill="#9D2235" opacity="1.000000" stroke="none" 
	d="
M52.739891,150.773682 
	C57.211281,148.817627 62.138416,146.961563 67.660316,144.881439 
	C73.202950,121.634308 78.984901,97.383408 84.766853,73.132507 
	C85.106628,73.142868 85.446404,73.153229 85.786171,73.163589 
	C86.192535,74.813835 86.598900,76.464081 87.011017,78.807243 
	C87.025330,79.704369 87.033890,79.908569 87.042435,80.112762 
	C87.033051,80.523087 87.023666,80.933418 87.061516,81.648102 
	C85.091499,88.506516 82.766487,94.984344 81.120224,101.630302 
	C77.550713,116.040382 74.420235,130.559357 70.830177,144.964005 
	C70.446358,146.504028 68.394188,148.340088 66.796692,148.729691 
	C62.353016,149.813416 57.741104,150.207306 52.739891,150.773682 
z"/>
<path fill="#9D2235" opacity="1.000000" stroke="none" 
	d="
M58.715073,199.402649 
	C45.347980,190.959442 31.802586,182.434433 21.016275,170.442932 
	C16.788982,165.743317 12.989101,160.659256 8.939743,155.396103 
	C10.500406,155.826843 12.540391,156.225204 13.663418,157.458542 
	C21.768536,166.359726 29.617701,175.479370 39.601124,182.453735 
	C45.373951,186.486588 50.980328,190.767227 56.518211,195.118835 
	C57.618938,195.983780 58.067253,197.678986 58.715073,199.402649 
z"/>
<path fill="#9D2235" opacity="1.000000" stroke="none" 
	d="
M151.945511,35.676819 
	C147.600952,36.057671 143.259720,36.018505 138.459198,35.906342 
	C138.643082,34.958691 139.415833,33.261578 139.909027,33.339264 
	C143.921112,33.971241 148.659698,30.363317 151.945511,35.676819 
z"/>
<path fill="#9D2235" opacity="1.000000" stroke="none" 
	d="
M104.014114,146.549240 
	C108.731956,147.471817 113.464447,148.776962 118.459229,150.374481 
	C113.631516,150.178787 108.141983,151.262344 104.014114,146.549240 
z"/>
<path fill="#9D2235" opacity="1.000000" stroke="none" 
	d="
M8.174926,152.833374 
	C6.933772,151.521851 5.978700,149.998276 5.095563,148.170700 
	C6.265335,149.451569 7.363172,151.036438 8.174926,152.833374 
z"/>
<path fill="#FFFFFF" opacity="1.000000" stroke="none" 
	d="
M1112.000000,45.000038 
	C1112.000000,37.204552 1112.000000,29.909058 1112.000000,22.308149 
	C1123.515259,21.462263 1135.108276,20.410109 1142.512207,31.251768 
	C1150.857178,43.471310 1150.963867,57.090534 1144.806519,70.097565 
	C1138.312134,83.816322 1125.598267,84.245300 1112.000000,82.555992 
	C1112.000000,70.316414 1112.000000,57.908222 1112.000000,45.000038 
z"/>
<path fill="#FFFFFF" opacity="1.000000" stroke="none" 
	d="
M730.000000,26.154533 
	C730.640320,24.450953 731.242737,22.196560 731.926880,22.171490 
	C738.075195,21.946190 744.418518,21.203911 750.352600,22.383619 
	C758.595642,24.022358 761.307800,29.872019 760.909119,38.003330 
	C760.553711,45.253906 754.149292,50.581638 746.217896,50.995968 
	C745.719421,51.022011 745.218445,50.999954 744.718628,50.999962 
	C740.059265,51.000011 735.399963,50.999989 730.000000,50.999989 
	C730.000000,42.801716 730.000000,34.719654 730.000000,26.154533 
z"/>
<path fill="#FFFFFF" opacity="1.000000" stroke="none" 
	d="
M914.982056,153.349075 
	C914.389893,168.199234 909.592224,173.039413 888.000000,171.771042 
	C888.000000,166.583633 888.000000,161.345352 888.000000,156.107056 
	C888.000000,150.972122 888.000000,145.837173 888.000000,140.734390 
	C901.244080,137.533081 910.909729,141.932007 914.982056,153.349075 
z"/>
<path fill="#9D2235" opacity="1.000000" stroke="none" 
	d="
M87.299042,80.018494 
	C87.033890,79.908569 87.025330,79.704369 87.029541,79.193634 
	C87.213425,79.232819 87.384537,79.578522 87.299042,80.018494 
z"/>
</svg>